<svg xmlns="http://www.w3.org/2000/svg" width="143" height="51.538" fill="none" viewBox="0 0 143 51.538"><path fill="#0a0a23" d="M143 38.986v-1.208h-9.752v1.208h4.152v12.328h1.431V38.986zm-1.097-9.988L131.292 11.99 141.748.59h-4.695l-13.538 15.184V.583h-3.785v28.408h3.785v-8.723l5.208-5.642 8.759 14.362zm-35.471 22.31h8.437v-1.203h-7.009v-5.039h5.694v-1.218h-5.694v-4.862h6.728v-1.208h-8.156zm7.026-22.316-6.431-11.758c3.038-.947 5.799-3.71 5.799-7.97 0-5.445-3.747-8.681-9.982-8.681h-9.193v28.409h3.788V17.864h5.918l5.879 11.127zm-10.417-14.244h-5.603V3.779h5.286c3.946 0 6.319 2.052 6.319 5.485 0 3.432-2.249 5.484-5.997 5.484zm-8.316 33.666c-.639-1.578-1.259-2.932-1.99-4.641l-2.557-5.995h-1.541l6.07 13.755h.037l6.089-13.755h-1.56l-2.556 5.995c-.733 1.71-1.353 3.063-1.992 4.641m-9.792-19.423h4.024L75.858.11h-.079L62.68 28.99h4.024l2.763-6.312h12.665zm-4.182-9.43h-9.904c1.934-4.34 3.393-7.733 4.972-11.757 1.539 4.024 2.998 7.417 4.932 11.757m-16.81 18.217H62.51v13.53h1.43zM51.266 25.633C51.266 11.5 39.768 0 25.633 0S0 11.498 0 25.633s11.498 25.633 25.633 25.633 25.633-11.498 25.633-25.633M23.454 1.557l-19.3 35.157a24 24 0 0 1-2.7-11.081c0-12.597 9.686-22.968 22-24.074zm1.45 23.648L6.2 36.005 24.903 1.937zm0 24.584A24.18 24.18 0 0 1 5.071 38.334l19.831-11.446zm6.47-36.711a14.96 14.96 0 0 1-5.016 11.131V1.943a14.74 14.74 0 0 1 5.016 11.135m14.81-.159-16.214 9.36a16.4 16.4 0 0 0 2.853-9.201 16.18 16.18 0 0 0-4.734-11.5 24.21 24.21 0 0 1 18.09 11.341zm.732 24.168L27.079 25.633l19.837-11.457a24.13 24.13 0 0 1 0 22.91m-.733 1.256A24.18 24.18 0 0 1 26.358 49.79V26.89zm26.424-.788h-.02v13.753h1.432v-8.984c0-.431-.018-.827-.018-1.203.112.15.262.32.393.47l8.626 9.94h.019V37.779h-1.43v8.983c0 .45.018.826.018 1.202l-.394-.47zm54.514 10.523c0 1.372-1.354 2.161-3.12 2.161-1.485 0-2.875-.507-3.758-.939v1.43a9.65 9.65 0 0 0 3.833.808c2.65 0 4.454-1.312 4.454-3.552 0-1.973-1.128-3.063-3.834-4.021-2.424-.884-3.081-1.729-3.081-2.95 0-1.311 1.259-2.161 2.988-2.161a7.8 7.8 0 0 1 3.232.789v-1.395a8.4 8.4 0 0 0-3.288-.693c-2.424 0-4.341 1.277-4.341 3.514 0 1.954 1.108 3.1 3.796 4.053 2.384.847 3.12 1.58 3.12 2.951z"/></svg>