<svg width="500" height="104" viewBox="0 0 500 104" fill="none" xmlns="http://www.w3.org/2000/svg">
<path fill-rule="evenodd" clip-rule="evenodd" d="M2.56633 0.979492C2.06566 0.979492 1.58551 1.17838 1.23148 1.5324C0.877461 1.88643 0.678574 2.36658 0.678574 2.86725V59.5611C0.678574 60.6019 1.52551 61.4489 2.56633 61.4489H149.964C150.465 61.4489 150.945 61.25 151.299 60.896C151.653 60.5419 151.852 60.0618 151.852 59.5611V2.86725C151.852 2.36658 151.653 1.88643 151.299 1.5324C150.945 1.17838 150.465 0.979492 149.964 0.979492L2.56123 0.979492H2.56633ZM132.005 42.5509C132.129 42.5516 132.253 42.5277 132.368 42.4805C132.483 42.4334 132.588 42.364 132.676 42.2763C132.764 42.1886 132.834 42.0843 132.882 41.9694C132.93 41.8546 132.954 41.7314 132.954 41.607V20.8213C132.954 20.571 132.855 20.3309 132.678 20.1539C132.501 19.9769 132.261 19.8775 132.01 19.8775H20.5204C20.2701 19.8775 20.03 19.9769 19.853 20.1539C19.676 20.3309 19.5765 20.571 19.5765 20.8213V41.607C19.5765 42.1275 19.9949 42.5509 20.5204 42.5509H132.01H132.005Z" fill="black"/>
<path d="M19.5765 86.0157C19.5765 85.7678 19.5277 85.5223 19.4328 85.2933C19.338 85.0642 19.1989 84.8561 19.0236 84.6808C18.8483 84.5055 18.6402 84.3665 18.4112 84.2716C18.1821 84.1768 17.9367 84.1279 17.6888 84.1279H2.56122C2.31331 84.1279 2.06784 84.1768 1.8388 84.2716C1.60977 84.3665 1.40167 84.5055 1.22637 84.6808C1.05108 84.8561 0.912027 85.0642 0.817159 85.2933C0.72229 85.5223 0.673462 85.7678 0.673462 86.0157V101.133C0.673462 102.174 1.5204 103.021 2.56122 103.021H17.6786C17.9265 103.021 18.1719 102.972 18.401 102.877C18.63 102.782 18.8381 102.643 19.0134 102.468C19.1887 102.293 19.3278 102.084 19.4226 101.855C19.5175 101.626 19.5663 101.381 19.5663 101.133V86.0157H19.5765ZM367.27 86.0157C367.27 85.7678 367.222 85.5223 367.127 85.2933C367.032 85.0642 366.893 84.8561 366.717 84.6808C366.542 84.5055 366.334 84.3665 366.105 84.2716C365.876 84.1768 365.631 84.1279 365.383 84.1279H350.255C350.007 84.1279 349.762 84.1768 349.533 84.2716C349.304 84.3665 349.096 84.5055 348.92 84.6808C348.745 84.8561 348.606 85.0642 348.511 85.2933C348.416 85.5223 348.367 85.7678 348.367 86.0157V101.133C348.367 102.174 349.214 103.021 350.255 103.021H365.372C365.62 103.021 365.866 102.972 366.095 102.877C366.324 102.782 366.532 102.643 366.707 102.468C366.883 102.293 367.022 102.084 367.116 101.855C367.211 101.626 367.26 101.381 367.26 101.133V86.0157H367.27ZM174.526 86.0157C174.526 85.7678 174.574 85.5223 174.669 85.2933C174.764 85.0642 174.903 84.8561 175.078 84.6808C175.254 84.5055 175.462 84.3665 175.691 84.2716C175.92 84.1768 176.165 84.1279 176.413 84.1279H323.811C324.059 84.1279 324.305 84.1768 324.534 84.2716C324.763 84.3665 324.971 84.5055 325.146 84.6808C325.321 84.8561 325.46 85.0642 325.555 85.2933C325.65 85.5223 325.699 85.7678 325.699 86.0157V101.133C325.699 101.381 325.65 101.626 325.555 101.855C325.46 102.084 325.321 102.293 325.146 102.468C324.971 102.643 324.763 102.782 324.534 102.877C324.305 102.972 324.059 103.021 323.811 103.021H176.413C176.165 103.021 175.92 102.972 175.691 102.877C175.462 102.782 175.254 102.643 175.078 102.468C174.903 102.293 174.764 102.084 174.669 101.855C174.574 101.626 174.526 101.381 174.526 101.133V86.0157Z" fill="black"/>
<path fill-rule="evenodd" clip-rule="evenodd" d="M348.372 2.86725C348.372 2.36658 348.571 1.88643 348.925 1.5324C349.279 1.17838 349.76 0.979492 350.26 0.979492L497.658 0.979492C498.159 0.979492 498.639 1.17838 498.993 1.5324C499.347 1.88643 499.546 2.36658 499.546 2.86725V59.5611C499.546 60.0618 499.347 60.5419 498.993 60.896C498.639 61.25 498.159 61.4489 497.658 61.4489H350.255C349.754 61.4489 349.274 61.25 348.92 60.896C348.566 60.5419 348.367 60.0618 348.367 59.5611L348.372 2.86725ZM479.699 19.8775C480.225 19.8775 480.648 20.3009 480.648 20.8213V41.607C480.648 41.8574 480.549 42.0975 480.372 42.2745C480.195 42.4515 479.954 42.5509 479.704 42.5509H368.214C367.964 42.5509 367.724 42.4515 367.547 42.2745C367.37 42.0975 367.27 41.8574 367.27 41.607V20.8213C367.27 20.3009 367.694 19.8775 368.214 19.8775H479.699Z" fill="black"/>
<path d="M176.413 0.979492C175.913 0.979492 175.432 1.17838 175.078 1.5324C174.724 1.88643 174.526 2.36658 174.526 2.86725V17.9846C174.526 19.0305 175.372 19.8723 176.413 19.8723H305.852C306.378 19.8723 306.801 20.3009 306.801 20.8213V41.607C306.801 41.8574 306.702 42.0975 306.525 42.2745C306.348 42.4515 306.107 42.5509 305.857 42.5509H176.418C176.17 42.5502 175.924 42.5986 175.694 42.6931C175.465 42.7877 175.256 42.9267 175.08 43.102C174.904 43.2774 174.765 43.4857 174.67 43.7151C174.575 43.9444 174.526 44.1903 174.526 44.4387V59.556C174.526 60.6019 175.372 61.4438 176.413 61.4438H323.811C324.312 61.4438 324.792 61.2449 325.146 60.8909C325.5 60.5368 325.699 60.0567 325.699 59.556V2.87745C325.7 2.62912 325.651 2.38309 325.557 2.15347C325.462 1.92385 325.323 1.71514 325.148 1.53931C324.973 1.36347 324.764 1.22397 324.535 1.12878C324.305 1.03359 324.06 0.984593 323.811 0.984594H176.413V0.979492Z" fill="black"/>
</svg>
