<svg width="995" height="217" viewBox="0 0 995 217" fill="none" xmlns="http://www.w3.org/2000/svg">
<path fill-rule="evenodd" clip-rule="evenodd" d="M243.508 0C211.081 0 181.99 14.2814 162.171 36.8956C184.15 40.7823 204.77 50.4926 221.815 65.1185C233.673 74.8601 244.179 86.1359 253.058 98.655L258.094 106.169C258.877 107.35 258.877 108.884 258.094 110.065L253.089 117.579C244.232 130.112 233.726 141.392 221.851 151.115C204.814 165.768 184.186 175.487 162.194 179.352C182.008 201.949 211.09 216.216 243.504 216.216C303.21 216.216 351.614 167.813 351.614 108.106C351.614 48.3994 303.219 0 243.508 0Z" fill="black"/>
<path fill-rule="evenodd" clip-rule="evenodd" d="M231.934 103.881C219.486 88.2261 190.615 58.4421 149.55 55.593C149.005 55.5572 148.459 55.5259 147.914 55.4991C140.015 70.514 135.538 87.6133 135.538 105.755C135.538 123.896 140.006 140.96 147.887 155.965C148.455 155.938 149.023 155.903 149.591 155.863C190.611 153.081 219.464 123.368 231.934 107.709C232.811 106.587 232.811 105.008 231.934 103.881ZM202.401 107.074C201.676 113.224 196.103 117.617 189.953 116.891C184.308 116.226 180.059 111.444 180.059 105.759C180.068 99.5599 185.1 94.5419 191.299 94.5509C191.729 94.5509 192.158 94.577 192.587 94.6266C198.738 95.3509 203.125 100.924 202.401 107.074ZM51.8748 107.361C77.2798 139.005 112.239 157.768 147.877 155.961C151.863 163.552 156.724 170.605 162.329 176.997C158.545 177.663 154.725 178.159 150.874 178.473C148.356 178.678 145.797 178.75 143.284 178.75C112.512 178.092 82.9334 166.696 59.6752 146.533C52.0492 140.168 45.0091 133.137 38.6355 125.519C38.2777 125.166 37.7006 125.175 37.3473 125.533C37.307 125.573 37.2758 125.614 37.2444 125.658C30.0121 138.383 24.3406 151.931 20.351 166.016L20.2659 166.226L20.1318 166.437C18.1235 169.491 14.7422 171.361 11.0879 171.446C9.71036 171.406 8.35508 171.097 7.09377 170.542C2.88046 168.61 0.183407 164.392 0.196825 159.758V159.548L0.23708 159.338C5.40308 140.924 13.1364 123.333 23.2045 107.079C23.7413 106.229 23.7413 105.146 23.2045 104.297C13.1275 88.1054 5.40756 70.5544 0.28628 52.1805L0.246025 52.0418C-0.814012 46.8981 1.61915 41.6696 6.23949 39.1737C8.64581 38.0197 11.4278 37.9437 13.8923 38.9635C16.8354 40.1041 19.1657 42.4254 20.3151 45.364L20.3554 45.5743C24.3317 59.6097 29.9941 73.1128 37.2086 85.793C37.4904 86.2089 38.0585 86.3163 38.4744 86.0345C38.5192 86.0033 38.5595 85.9719 38.5997 85.9316C44.9599 78.337 51.9866 71.3237 59.5992 64.9859C84.7627 42.98 117.45 31.5388 150.843 33.0461C154.698 33.3637 158.523 33.8646 162.306 34.5355C156.724 40.9047 151.88 47.9358 147.904 55.4947C112.284 53.728 77.2932 72.4956 51.8748 104.158C51.1144 105.093 51.1144 106.43 51.8748 107.361Z" fill="black"/>
<path fill-rule="evenodd" clip-rule="evenodd" d="M850.039 61.8714C848.052 63.661 845.453 64.5692 842.304 64.5692C839.059 64.5692 836.429 63.661 834.492 61.8668C832.532 60.055 831.539 57.657 831.539 54.7399C831.539 51.8229 832.537 49.4428 834.501 47.6756C836.442 45.9307 839.158 45.0449 842.304 45.0449C845.449 45.0449 848.048 45.9263 850.03 47.6666C852.048 49.4383 853.068 51.8229 853.068 54.7399C853.068 57.657 852.048 60.0594 850.039 61.8714ZM805.206 76.0212H843.1C850.013 76.0212 851.462 79.918 851.462 83.184V134.987C851.462 137.82 850.576 140.043 848.827 141.591C847.109 143.112 844.908 143.886 842.299 143.886C839.691 143.886 837.472 143.117 835.714 141.6C833.915 140.052 833.003 137.829 833.003 134.987V90.3422H805.206V134.987C805.206 137.824 804.315 140.025 802.562 141.533C800.844 143.001 798.647 143.748 796.043 143.748C793.44 143.748 791.23 143.005 789.471 141.538C787.669 140.034 786.75 137.829 786.75 134.983V90.3377H780.958C774.045 90.3377 772.596 86.4456 772.596 83.1796C772.596 79.9136 774.05 76.0212 780.958 76.0212H786.75C786.787 67.6595 789.091 60.9038 793.587 55.9512C798.128 50.9583 804.588 48.0546 812.789 47.321L815.863 47.0571C816.283 46.9675 816.995 46.9183 817.943 46.9183C824.52 46.9183 825.903 50.6675 825.903 53.8127C825.903 56.0049 825.276 57.7408 824.041 58.9756C822.829 60.188 821.165 60.9037 819.093 61.1007L816.15 61.3646C812.311 61.7001 809.501 62.8768 807.796 64.8633C806.078 66.872 805.206 69.8875 805.206 73.8335V76.0212ZM917.757 113.556C916.207 111.014 913.64 108.88 910.108 107.212C906.685 105.592 901.901 104.13 895.892 102.872C890.406 101.74 886.68 100.608 884.814 99.5035C883.128 98.5098 882.314 97.0963 882.314 95.19C882.314 93.1638 883.128 91.6107 884.805 90.4431C886.56 89.2175 889.015 88.6001 892.112 88.6001C894.759 88.6001 896.993 88.9179 898.755 89.5487C900.571 90.1972 902.784 91.1909 905.297 92.4882C906.739 93.2981 907.955 93.9197 908.919 94.3359C909.964 94.7828 911.045 95.0071 912.135 95.0071C913.829 95.0071 915.279 94.2909 916.423 92.8774C917.532 91.5215 918.099 89.826 918.099 87.8441C918.099 84.596 916.514 81.9653 913.423 80.0281C910.595 78.2072 907.369 76.798 903.82 75.845C900.299 74.8965 896.581 74.4134 892.783 74.4134C887.521 74.4134 882.757 75.3126 878.614 77.0843C874.44 78.8739 871.102 81.4419 868.704 84.7168C866.288 88.0141 865.062 91.7629 865.062 95.8521C865.062 101.261 866.896 105.575 870.511 108.675C874.037 111.694 879.897 114.052 887.919 115.676C892.308 116.643 895.619 117.511 897.767 118.253C899.797 118.956 901.207 119.712 901.955 120.494C902.64 121.224 902.982 122.203 902.982 123.493C902.982 125.403 902.09 126.852 900.272 127.94C898.33 129.098 895.539 129.685 891.982 129.685C888.425 129.685 885.481 129.335 883.226 128.655C880.922 127.958 878.332 126.941 875.576 125.649C872.748 124.141 870.56 123.407 868.887 123.407C867.214 123.407 865.769 124.069 864.619 125.376C863.501 126.647 862.932 128.306 862.932 130.297C862.932 133.729 864.512 136.409 867.625 138.261C873.701 142.158 881.763 144.135 891.588 144.135C900.106 144.135 907.045 142.238 912.198 138.494C917.45 134.686 920.108 129.55 920.108 123.224C920.108 119.34 919.324 116.084 917.775 113.551L917.757 113.556ZM957.279 77.241C961.081 75.3665 965.459 74.4135 970.288 74.4135L970.297 74.4C986.126 74.4 994.144 83.7282 994.144 102.121V134.964C994.144 137.693 993.315 139.885 991.676 141.473C990.036 143.057 987.784 143.858 984.982 143.858C982.18 143.858 979.919 143.057 978.234 141.482C976.55 139.894 975.694 137.702 975.694 134.964V102.121C975.694 97.6512 974.793 94.3674 973.036 92.3584C971.306 90.3855 968.496 89.3877 964.694 89.3877C960.153 89.3877 956.487 90.8242 953.784 93.6557C951.063 96.5017 949.685 100.38 949.685 105.194V134.968C949.685 137.702 948.829 139.898 947.135 141.486C945.46 143.061 943.198 143.862 940.387 143.862C937.586 143.862 935.333 143.061 933.703 141.477C932.063 139.889 931.225 137.697 931.225 134.968V55.1309C931.225 52.5673 932.108 50.4646 933.847 48.8718C935.568 47.3014 937.82 46.5051 940.523 46.5051C943.216 46.5051 945.441 47.2523 947.108 48.7287C948.82 50.2319 949.676 52.2988 949.676 54.8669V83.2539C951.748 80.7306 954.297 78.7174 957.279 77.241ZM442.479 113.556C440.927 111.014 438.354 108.88 434.829 107.212C431.402 105.592 426.619 104.13 420.611 102.872C415.126 101.74 411.399 100.608 409.533 99.5035C407.847 98.5098 407.032 97.0963 407.032 95.19C407.032 93.1638 407.847 91.6107 409.524 90.4431C411.278 89.2175 413.734 88.6001 416.831 88.6001C419.478 88.6001 421.712 88.9179 423.474 89.5487C425.29 90.1972 427.501 91.1909 430.015 92.4882C431.456 93.2981 432.677 93.9197 433.639 94.3359C434.681 94.7828 435.764 95.0071 436.856 95.0071C438.551 95.0071 439.996 94.2909 441.146 92.8774C442.251 91.5215 442.814 89.826 442.814 87.8441C442.814 84.596 441.235 81.9653 438.14 80.0281C435.316 78.2072 432.091 76.798 428.543 75.845C425.018 74.8965 421.3 74.4134 417.501 74.4134C412.24 74.4134 407.476 75.3126 403.332 77.0843C399.159 78.8739 395.821 81.4419 393.423 84.7168C391.006 88.0141 389.781 91.7629 389.781 95.8521C389.781 101.261 391.615 105.575 395.231 108.675C398.756 111.694 404.616 114.052 412.638 115.676C417.027 116.643 420.338 117.511 422.486 118.253C424.516 118.956 425.926 119.712 426.673 120.494C427.362 121.224 427.697 122.203 427.697 123.493C427.697 125.403 426.812 126.852 424.991 127.94C423.049 129.098 420.258 129.685 416.701 129.685C413.144 129.685 410.2 129.335 407.945 128.655C405.641 127.958 403.05 126.941 400.295 125.649C397.468 124.141 395.279 123.407 393.606 123.407C391.933 123.407 390.487 124.069 389.338 125.376C388.22 126.647 387.651 128.306 387.651 130.297C387.651 133.729 389.231 136.409 392.344 138.261C398.42 142.158 406.482 144.135 416.307 144.135C424.825 144.135 431.759 142.238 436.918 138.494C442.166 134.686 444.828 129.55 444.828 123.224C444.828 119.34 444.045 116.084 442.497 113.551L442.479 113.556ZM488.906 129.421L492.512 129.685L492.521 129.689C498.713 130.06 500.014 133.64 500.014 136.579C500.014 139.026 499.004 140.919 497.004 142.198C495.367 143.249 493.139 143.777 490.369 143.777C490.129 143.777 489.885 143.773 489.636 143.766C489.449 143.759 489.259 143.751 489.067 143.742L485.443 143.474C470.017 142.368 462.196 133.989 462.196 118.558V90.3368H456.403C453.795 90.3368 451.741 89.7281 450.296 88.5291C448.802 87.2898 448.041 85.4868 448.041 83.1738C448.041 80.8607 448.802 79.0622 450.296 77.8185C451.746 76.6194 453.799 76.011 456.403 76.011H462.196V64.6114C462.196 61.9674 463.051 59.8154 464.742 58.2271C466.42 56.6522 468.777 55.8515 471.489 55.8515C474.2 55.8515 476.423 56.6522 478.102 58.2271C479.793 59.8199 480.651 61.9674 480.651 64.6114V76.011H491.116C493.715 76.011 495.769 76.6194 497.219 77.8139C498.713 79.0577 499.474 80.8518 499.474 83.1692C499.474 85.4868 498.717 87.2853 497.219 88.5247C495.769 89.7236 493.715 90.3323 491.112 90.3323H480.647V119.758C480.647 125.855 483.35 129.013 488.906 129.421ZM558.745 81.4195C554.186 76.7711 547.167 74.4134 537.887 74.4134C533.655 74.4134 529.297 74.9144 524.94 75.9032C520.565 76.8965 516.735 78.2744 513.563 79.9968C511.666 81.0392 510.284 82.1891 509.451 83.4104C508.596 84.6676 508.163 86.1619 508.163 87.8485C508.163 89.9335 508.753 91.6602 509.921 92.9756C511.111 94.3269 512.659 95.0116 514.524 95.0116C515.746 95.0116 517.536 94.4116 519.921 93.217C523.531 91.808 526.694 90.7161 529.32 89.9737C531.902 89.2445 534.469 88.8731 536.957 88.8731C540.868 88.8731 543.704 89.7903 545.39 91.5936C547.095 93.4188 547.959 96.4251 547.959 100.537V102.724H545.507C535.789 102.724 528.041 103.359 522.479 104.617C516.802 105.896 512.628 108.012 510.064 110.898C507.478 113.815 506.172 117.829 506.172 122.835C506.172 126.821 507.255 130.49 509.388 133.733C511.514 136.967 514.458 139.54 518.144 141.379C521.813 143.213 525.942 144.144 530.421 144.144C534.899 144.144 538.782 143.115 542.16 141.079C544.532 139.652 546.478 137.818 547.972 135.603C548.07 137.934 548.898 139.871 550.432 141.357C552.066 142.94 554.182 143.741 556.723 143.741C559.443 143.741 561.626 142.963 563.21 141.424C564.807 139.88 565.617 137.756 565.617 135.116V102.541C565.617 93.1774 563.308 86.0724 558.754 81.4285L558.745 81.4195ZM547.95 113.301V115.215C547.95 119.681 546.616 123.363 543.986 126.158C541.332 128.982 537.986 130.356 533.75 130.356C531.015 130.356 528.783 129.537 526.935 127.85C525.11 126.185 524.22 124.11 524.22 121.497C524.22 119.417 524.828 117.838 526.077 116.665C527.36 115.462 529.584 114.594 532.689 114.088C535.923 113.565 540.545 113.301 546.432 113.301H547.95ZM617.841 108.395L640.349 128.577L640.358 128.582C642.331 130.457 643.324 132.716 643.324 134.979C643.324 137.243 642.505 139.288 640.89 141.05C639.253 142.836 637.284 143.74 635.096 143.74C632.909 143.74 630.864 142.849 629.012 141.091L599.265 114.14V134.975C599.265 137.821 598.352 140.026 596.544 141.53C594.782 142.997 592.581 143.74 589.968 143.74C587.355 143.74 585.163 142.993 583.45 141.525C581.696 140.022 580.805 137.821 580.805 134.979V55.2719C580.805 52.431 581.696 50.2299 583.45 48.7265C585.159 47.2547 587.359 46.5119 589.963 46.5119C592.568 46.5119 594.777 47.2547 596.536 48.7176C598.339 50.2209 599.256 52.4265 599.256 55.2719V103.403L626.332 77.4626C628.081 75.7089 630.135 74.814 632.416 74.814C634.698 74.814 636.707 75.6641 638.385 77.3419C640.062 79.024 640.913 81.0283 640.913 83.31C640.913 85.5917 639.973 87.6856 638.116 89.5422L617.841 108.395ZM705.323 123.412C703.918 123.412 701.86 124.146 699.082 125.627C696.362 126.857 693.901 127.832 691.763 128.53C689.686 129.21 687.24 129.555 684.493 129.555C679.15 129.555 675.048 128.181 672.296 125.47C669.679 122.893 668.051 118.849 667.447 113.435H705.856C708.576 113.435 711.814 112.285 711.814 106.809C711.814 100.291 710.571 94.5413 708.115 89.7186C705.645 84.8734 702.12 81.0706 697.632 78.4085C693.154 75.76 687.834 74.4134 681.831 74.4134C675.827 74.4134 669.859 75.8898 664.892 78.8067C659.917 81.7283 656.012 85.889 653.274 91.1774C650.549 96.4431 649.171 102.555 649.171 109.341C649.171 120.039 652.36 128.606 658.647 134.807C664.928 140.999 673.541 144.14 684.233 144.14C687.754 144.14 691.516 143.612 695.409 142.574C699.287 141.536 702.818 140.14 705.896 138.417C709.47 136.386 711.283 133.795 711.283 130.709C711.283 128.552 710.746 126.794 709.686 125.479C708.58 124.11 707.108 123.412 705.323 123.412ZM695.718 102.715H667.46C668.064 98.0674 669.586 94.4431 671.984 91.9242C674.511 89.2712 677.956 87.9247 682.224 87.9247C686.493 87.9247 689.638 89.2042 691.978 91.835C694.178 94.3089 695.436 97.9683 695.718 102.715ZM756.042 109.993C756.767 103.841 752.373 98.2665 746.222 97.5422C745.792 97.4927 745.368 97.4656 744.938 97.4656C738.737 97.4566 733.704 102.476 733.695 108.677C733.695 114.364 737.945 119.147 743.591 119.813C749.742 120.538 755.317 116.145 756.042 109.993Z" fill="black"/>
</svg>
